<svg id="Layer_1" data-name="Layer 1" xmlns="http://www.w3.org/2000/svg" viewBox="0 0 483.47 483.45"><defs><style>.cls-1{fill:#111;}</style></defs><path class="cls-1" d="M434.37,15.76c-44.8,4-92.7,20.1-134.5,45.1C266.27,81,241,101,207.37,134l-18,17.8-11.5-1.6c-13.7-1.9-35.9-1.4-48.9,1.1-60.5,11.8-97.5,56.9-109.4,133.2-2,12.6-1,16.4,4.9,18.9,5.5,2.3,9.5.5,14.9-6.4,14.2-18.5,31.8-28.6,49.6-28.6,10.2,0,19.5,2.6,18.7,5.3-.3.9-2.4,6.4-4.6,12.3s-5.2,14.8-6.6,19.8c-2.8,10.5-2.4,12.4,3,18l3.5,3.6-15.1,14.9c-8.3,8.3-15.7,16.2-16.5,17.7-3.4,6.4-3.9,5.7,34.3,44,24.4,24.4,36.8,36.1,39,36.9,5.1,1.6,8.3-.6,24.8-17.1l14.9-15,4.4,4.3c3.7,3.7,4.8,4.2,8.5,4.1,4.3-.2,21.5-5.4,34.5-10.5,4-1.6,7.4-2.9,7.6-2.9.8,0,3.5,9.6,4.2,14.7,1.7,13.5-5,30.3-17.3,43.3a117.08,117.08,0,0,1-12.3,11.5c-6.1,4.5-7.8,8.7-5.6,13.8a10.83,10.83,0,0,0,4.7,5.2c3,1.6,3.9,1.6,14.3,0,31.4-4.8,59.1-14.8,81-29.2,15.9-10.5,34.9-32.6,42.6-49.5,3.5-7.9,8.5-24.2,10.2-33.3,1.7-9.3,1.7-41.9,0-50.9l-1.3-6.8,18.8-19.2c22.1-22.4,32-33.7,47.1-53.8,49.6-66,75.9-144.1,70.2-207.8-1.9-20.8-3.2-23.1-15-25C471.87,15.36,445.27,14.76,434.37,15.76Zm40.3,21.4c1.3,1.2.9,38.1-.5,48.1a327.07,327.07,0,0,1-9.8,45c-2,6.6-3.8,12.2-4,12.5-.5.5-91.4-90.1-91.4-91.1s23.6-7.7,36.2-10.3c6.4-1.4,15.9-2.9,21-3.5s10.7-1.3,12.3-1.5C443.77,35.66,473.87,36.26,474.67,37.16Zm-74.8,75,52.3,52.3-7.2,14.4c-22.1,44.2-46.8,77.1-88.1,117.4-48.7,47.4-98.9,80.3-146.4,96.1l-10,3.3-42.3-42.2L116,311.26l3.3-10c18.3-53.9,54.3-106.3,110.5-160.6,33.4-32.3,64.3-54.5,102.7-73.8,7.7-3.9,14.2-7,14.5-7.1S371.07,83.36,399.87,112.16Zm-227.6,57.9c.4.1-3.2,5.2-8.1,11.2a441.09,441.09,0,0,0-41.1,61.1l-6.1,11-7.3-2.5c-6.4-2.3-8.7-2.6-21.2-2.5-13.3,0-14.4.2-22.4,3.2a97.06,97.06,0,0,0-14.8,7.2l-6.3,3.9.6-2.7c1.9-7.7,8.1-23.8,12.5-32.2,18.3-35.1,48.3-55,87.4-57.9C153,169.26,169.37,169.46,172.27,170.06Zm169.5,195.7c-2.9,41-22.9,70.4-60.4,89.3a214.24,214.24,0,0,1-29.6,11.1l-2.8.6,3.9-6a88.82,88.82,0,0,0,7.2-14.8c3.2-8.3,3.3-9.3,3.4-22.7,0-12.6-.3-14.7-2.6-21.3l-2.6-7.2,11.1-6.2a416.1,416.1,0,0,0,61.1-41.1l11-8.8.6,7.8A160.7,160.7,0,0,1,341.77,365.76Zm-183,39.7-11.2,11.2-25.8-25.1c-14.2-13.8-26.1-25.5-26.5-26.1s4.6-6,10.8-12.3l11.4-11.4,26.2,26.2,26.3,26.3Z" transform="translate(-14.27 -14.27)"/><path class="cls-1" d="M217.46,494.47a9,9,0,0,1-4.86-1.32,12,12,0,0,1-5.17-5.73c-2.39-5.54-.56-10.16,5.94-15a115.69,115.69,0,0,0,12.17-11.38c12-12.69,18.69-29.37,17-42.49A70.05,70.05,0,0,0,239,404.93c-1.09.39-3.62,1.36-6.87,2.66-13.07,5.13-30.31,10.36-34.83,10.57-4,.11-5.41-.55-9.25-4.39l-3.68-3.6-14.2,14.3c-16.84,16.84-20.22,19.1-25.81,17.35-1.68-.61-7.63-5.37-39.41-37.15l-2.23-2.24c-35.93-36-35.93-36-32.39-42.66l.14-.27c1-1.78,9.11-10.37,16.68-17.94l14.4-14.21-2.81-2.89c-5.72-5.93-6.11-8.23-3.25-18.95,1.38-4.93,4.31-13.93,6.64-19.91.93-2.5,1.85-4.94,2.62-7,1-2.67,1.79-4.77,2-5.27h0s0-.08-.12-.26c-1.32-1.76-8.88-3.73-17.63-3.73-17.51,0-34.85,10-48.81,28.21-5.7,7.29-10.21,9.17-16.08,6.72-6.38-2.71-7.56-7-5.5-20,6-38.16,18.29-68.87,36.69-91.27s43.17-36.84,73.51-42.76c13.22-2.54,35.3-3,49.22-1.11l11,1.54,17.64-17.46c33.8-33.19,58.92-53,92.69-73.24,42.07-25.16,90-41.23,134.93-45.24h0c10.86-1,37.56-.42,46.85,1,12.75,2,14,5.48,15.84,25.89,5.75,64.25-20.57,142.19-70.39,208.49-15.2,20.23-24.9,31.31-47.19,53.91L361,322.89l1.2,6.29c1.74,9.19,1.74,41.77,0,51.26-1.72,9.2-6.71,25.49-10.27,33.53-7.75,17-27,39.4-43,49.93-21.92,14.41-50.07,24.56-81.4,29.35A79.59,79.59,0,0,1,217.46,494.47Zm21.91-91.71c.72,0,1.35,0,3.1,6.17a78.51,78.51,0,0,1,2.09,9.4c1.75,13.92-5,30.82-17.57,44.12a118.63,118.63,0,0,1-12.43,11.62c-5.69,4.2-7.27,8-5.28,12.6a10,10,0,0,0,4.25,4.71c2.67,1.42,3.22,1.5,13.68-.1,31.06-4.75,58.93-14.8,80.61-29,15.67-10.36,34.62-32.37,42.24-49.08,3.51-7.92,8.43-24,10.12-33.07s1.67-41.71,0-50.53l-1.39-7.31L378,302.67c22.22-22.52,31.89-33.57,47-53.71C474.51,183,500.68,105.62,495,41.85c-1.87-20.49-2.93-22.29-14.16-24.1-9.18-1.41-35.61-2-46.35-1h0c-44.65,4-92.27,20-134.08,45-33.62,20.12-58.64,39.89-92.31,73l-18.35,18.14-12-1.67c-13.51-1.87-35.75-1.37-48.57,1.1C69,164,32.42,208.52,20.56,284.62c-2,12.83-.72,15.7,4.3,17.82s8.57.49,13.72-6.09c14.34-18.69,32.24-29,50.39-29,7.68,0,17,1.59,19.23,4.54a2.26,2.26,0,0,1,.43,2.05c-.19.56-.95,2.58-2,5.37-.77,2-1.69,4.48-2.63,7-2.31,5.94-5.21,14.85-6.57,19.72-2.78,10.42-2.24,11.85,2.76,17l4.19,4.31L88.57,343c-9.28,9.27-15.7,16.28-16.32,17.45l-.15.28c-2.84,5.34-2.84,5.34,32,40.31l2.23,2.24c29.38,29.37,37.23,36.15,38.64,36.66,4.55,1.43,7.66-.78,23.75-16.86l15.6-15.7,5.11,5c3.63,3.63,4.5,3.9,7.77,3.81,4.24-.19,21.5-5.46,34.16-10.43C238.82,402.76,239.18,402.76,239.37,402.76Zm7.44,65.49,5.22-8a88.32,88.32,0,0,0,7.1-14.61c3.11-8.07,3.24-8.9,3.34-22.35,0-12.74-.35-14.67-2.55-21l-2.88-8,11.84-6.61a415.87,415.87,0,0,0,61-41l12.48-10,.74,9.69a158,158,0,0,1-.3,19.45c-2.93,41.45-22.87,70.93-60.94,90.12-6.35,3.22-23.06,9.49-29.81,11.17Zm12.69-73,2.31,6.4c2.38,6.85,2.66,9.08,2.66,21.64-.1,13.34-.19,14.55-3.47,23.06a89.27,89.27,0,0,1-7.3,15l-2.58,4,.44-.09a211.24,211.24,0,0,0,29.35-11c37.4-18.85,57-47.79,59.86-88.48h0a161.22,161.22,0,0,0,.3-19.15l-.46-5.9-9.52,7.62a419.09,419.09,0,0,1-61.24,41.19ZM147.58,418.07l-26.51-25.79c-2.65-2.58-25.94-25.22-26.64-26.26-.44-.74-.91-1.53,10.92-13.56l12.12-12.11,53.91,53.91Zm-51.16-52.8c2,2.06,12.7,12.6,26,25.58l25.1,24.41,21-21-51.08-51.08-10.7,10.69C100.7,360,97.29,364,96.42,365.27ZM200.2,396.81l-42.74-42.64-42.64-42.63,3.5-10.59c18.36-54.07,54.58-106.74,110.75-161,33.55-32.44,64.34-54.57,103-74,7.46-3.78,14.2-7,14.63-7.16l.16-.05H347c.58,0,.63,0,16.46,15.69,9.72,9.63,22.91,22.77,37.14,37l52.81,52.81-7.52,15C423.72,223.59,399,256.58,357.56,297c-48.51,47.22-99.26,80.53-146.78,96.33ZM117.11,311l41.76,41.77,41.87,41.76,9.41-3.1c47.23-15.72,97.72-48.87,146-95.87,41.22-40.23,65.87-73.07,87.9-117.13L451,164.66l-51.79-51.79c-27.29-27.29-49-48.86-52.36-51.94-1.68.79-7.29,3.49-13.88,6.83-38.42,19.3-69.06,41.32-102.46,73.62-55.93,54.05-92,106.45-110.25,160.2ZM43.48,264.76l1.11-5c2-8,8.22-24.1,12.59-32.45,18.41-35.31,48.92-55.52,88.21-58.43,7.19-.58,23.89-.44,27.08.21l.57.15.2.54c.46,1.4-6.13,9.47-8.3,12.13a442.44,442.44,0,0,0-41,60.95l-6.5,11.73-8.1-2.77c-6.31-2.27-8.65-2.54-20.86-2.45-13.38,0-14.29.22-22.06,3.14a96.24,96.24,0,0,0-14.62,7.11ZM157.93,170.5c-4.59,0-9.26.11-12.38.36C107,173.72,77,193.56,59,228.23c-4.23,8.08-10.5,24.22-12.41,32l-.08.37,4.28-2.66a97.24,97.24,0,0,1,15-7.28c8.21-3.08,9.49-3.27,22.75-3.27,12.52-.1,14.93.19,21.53,2.56l6.5,2.23,5.69-10.27a444.27,444.27,0,0,1,41.2-61.24c3.75-4.59,6.3-8.1,7.38-9.77C168.21,170.64,163.13,170.5,157.93,170.5ZM460.6,143.94l-.64-.25c-1.3-.54-33-32.11-46.64-45.66C368,52.82,368,52.18,368,51.66c0-.87,0-1.5,14.1-5.51,8.25-2.34,17-4.55,22.89-5.77,6.31-1.38,15.86-2.89,21.09-3.51s10.69-1.3,12.29-1.5c3.17-.42,34.75-.52,37,1.06h0a.08.08,0,0,1,0,0l0,0h0c2,2.7.67,42.3-.25,48.9a331.1,331.1,0,0,1-9.84,45.16c-.15.49-3.66,12.06-4.12,12.76l-.13.15Zm-90.13-92c7.78,8.53,80,80.55,89.45,89.19.61-1.83,1.87-5.78,3.49-11.13a328.06,328.06,0,0,0,9.77-44.85c1.39-10,1.65-43.19.73-47.16-3.42-.65-30-1.31-35.31-.61-1.61.21-7.21.91-12.32,1.51s-14.64,2.11-20.9,3.48C394,44.7,374.77,50.1,370.47,51.91ZM473.84,37.7Z" transform="translate(-14.27 -14.27)"/><path class="cls-1" d="M321.47,125.76a54.46,54.46,0,0,0-43.6,53c-.1,16.4,4.5,27.6,16,39.1s22.5,16.1,38.6,16.2c41,.2,67.2-43.7,47.9-80.4C369.47,133,344.57,121.16,321.47,125.76Zm22.8,21.6c15,5.3,24.5,22.2,21.6,38.2a34.78,34.78,0,0,1-18.6,24.8c-5.1,2.6-6.8,2.9-14.8,2.9-7.8,0-9.7-.4-14.7-2.8a35.67,35.67,0,0,1-16.5-16.5c-2.4-4.9-2.8-6.9-2.8-14.2,0-7.1.4-9.4,2.6-14.1C309,148.86,327,141.26,344.27,147.36Z" transform="translate(-14.27 -14.27)"/><path class="cls-1" d="M332.74,235.06h-.28c-16.3-.1-27.69-4.88-39.3-16.49s-16.39-23.21-16.29-39.81a55.41,55.41,0,0,1,44.4-54h0c23.61-4.7,48.84,7.25,60,28.42a55.83,55.83,0,0,1-1.6,55.41A54.48,54.48,0,0,1,332.74,235.06ZM321.66,126.74a53.4,53.4,0,0,0-42.79,52c-.1,16,4.45,27.13,15.7,38.39s22,15.8,37.9,15.9h.27a52.46,52.46,0,0,0,45.2-25.49,53.82,53.82,0,0,0,1.54-53.44c-10.74-20.4-35.06-31.92-57.82-27.39Zm10.81,87.52c-7.82,0-9.94-.4-15.14-2.89a36.9,36.9,0,0,1-17-17c-2.47-5-2.9-7.22-2.9-14.64s.45-9.73,2.69-14.52c8.06-17.14,26.75-25.06,44.44-18.82h0c15.48,5.47,25.26,22.74,22.25,39.32a35.77,35.77,0,0,1-19.12,25.51C342.54,213.9,340.68,214.26,332.47,214.26Zm-.05-67.95c-12.76,0-24.58,7.3-30.45,19.78-2.1,4.5-2.5,6.67-2.5,13.67,0,7.18.35,9,2.7,13.76a34.81,34.81,0,0,0,16,16c4.94,2.38,6.68,2.7,14.27,2.7,8,0,9.43-.28,14.34-2.79a33.76,33.76,0,0,0,18.07-24.1c2.84-15.62-6.36-31.91-20.95-37.06A34.58,34.58,0,0,0,332.42,146.31Z" transform="translate(-14.27 -14.27)"/><path class="cls-1" d="M44.07,388.56c-2.8.4-25.5,22.1-27.8,26.6-3.3,6.4,2,14.6,9.4,14.6,3.3,0,4.8-1.2,17-13.2,7.4-7.3,13.6-14.3,14-15.5C58.37,394,51.77,387.36,44.07,388.56Z" transform="translate(-14.27 -14.27)"/><path class="cls-1" d="M25.67,430.76A11.41,11.41,0,0,1,16,425.15a10.62,10.62,0,0,1-.57-10.44c2.14-4.19,25-26.59,28.54-27.13a12.35,12.35,0,0,1,11,3.78,10.77,10.77,0,0,1,2.69,9.94c-.57,1.72-7.83,9.62-14.27,16C31.21,429.24,29.43,430.76,25.67,430.76Zm18.55-41.21c-2.55.65-24.66,21.37-27.06,26.07a8.65,8.65,0,0,0,.5,8.49,9.41,9.41,0,0,0,8,4.65c2.87,0,4.39-1.2,16.3-12.91,7.64-7.54,13.34-14.09,13.75-15.11a8.78,8.78,0,0,0-2.24-8A10.37,10.37,0,0,0,44.22,389.55Z" transform="translate(-14.27 -14.27)"/><path class="cls-1" d="M36.27,461.06C23.37,474,23,474.46,23,478.66c0,6,4.1,10.1,10.1,10.1,4.2,0,4.7-.4,17.6-13.3S64,462.06,64,457.86c0-6-4.1-10.1-10.1-10.1C49.67,447.76,49.17,448.16,36.27,461.06Z" transform="translate(-14.27 -14.27)"/><path class="cls-1" d="M33.07,489.76c-6.54,0-11.1-4.56-11.1-11.1,0-4.71.76-5.48,13.59-18.3s13.59-13.6,18.31-13.6c6.53,0,11.1,4.57,11.1,11.1,0,4.72-.77,5.48-13.6,18.31S37.78,489.76,33.07,489.76Zm20.8-41c-3.67,0-3.89,0-16.9,13S24,475,24,478.66c0,5.45,3.65,9.1,9.1,9.1,3.66,0,3.88,0,16.89-13s13-13.23,13-16.9C63,452.42,59.31,448.76,53.87,448.76Z" transform="translate(-14.27 -14.27)"/><path class="cls-1" d="M109.47,455.66c-1.1.5-7.7,6.7-14.7,13.8C82.47,482,82,482.56,82,486.66c0,8,7.6,12.5,14.8,8.7,3.3-1.8,24.5-23.2,26.2-26.5,1.6-3.1.5-8.3-2.4-11C118,455.46,112.47,454.36,109.47,455.66Z" transform="translate(-14.27 -14.27)"/><path class="cls-1" d="M91.48,497.72a10.44,10.44,0,0,1-5.41-1.47,10.85,10.85,0,0,1-5.1-9.59c0-4.6,1-5.6,13.08-17.9,5.17-5.24,13.43-13.29,15-14h0c3.36-1.46,9.27-.3,12.18,2.38,3.2,3,4.42,8.68,2.61,12.19s-23.14,25-26.61,26.92A12.38,12.38,0,0,1,91.48,497.72Zm18.4-41.14c-.95.48-7.08,6.17-14.4,13.59C83.32,482.53,83,483,83,486.66a8.91,8.91,0,0,0,4.13,7.88,9.21,9.21,0,0,0,9.2-.06c3.2-1.75,24.17-23,25.78-26.07,1.42-2.75.37-7.43-2.19-9.81C117.57,456.46,112.53,455.44,109.88,456.58Z" transform="translate(-14.27 -14.27)"/></svg>